<svg width="1024" height="1024" xmlns="http://www.w3.org/2000/svg" p-id="1716" version="1.1" class="icon" t="1724580863033">

 <g>
  <title>Layer 1</title>
  <ellipse ry="512" rx="512" id="svg_3" cy="511.99999" cx="512" stroke="null" fill="#3f3f3f"/>
  <path stroke="null" id="svg_1" p-id="1717" fill="#5e76ff" d="m383.17528,766.66488c2.85318,-34.23813 8.84422,-74.47043 17.97627,-120.69379a9013.14385,9013.14385 0 0 0 26.5358,-119.83658l3.42256,5.13697c2.28379,-11.98209 5.13697,-21.11727 8.55953,-27.39301c0,8.55953 -2.28379,19.11504 -6.84825,31.67277c-6.27574,15.97717 -9.6983,26.5358 -10.27081,31.66964c-19.40286,97.58368 -29.10429,154.64722 -29.10429,171.19691c0,13.12399 -3.42256,22.54073 -10.27081,28.24708zm-29.10429,-166.91714a251.05459,251.05459 0 0 1 9.41674,-68.47626l1.71128,0.85408c0,22.82855 -3.70725,45.36928 -11.12802,67.62218zm4.27977,5.99418l5.13697,-44.51207l1.71128,0l-6.84825,44.51207zm-12.1917,55.53685l-0.75396,-0.3629l-0.71955,-3.62904l0.01877,-0.45676c0.21899,-4.80848 1.22011,-10.91215 2.99709,-18.30789l0.80715,-3.25049c2.56536,-9.98612 3.85116,-17.26298 3.85116,-21.82743l0.8572,0.8572l-7.05786,46.97732zm-1.27642,-0.63195l-0.80402,-0.40045l-2.84692,-2.29005l-0.85408,-2.56849l0.85408,-1.71128l3.42569,3.42256l0.03128,0.18771l-0.03128,1.52357l0.22525,1.83642zm-18.20152,118.00016l-4.27977,0c2.28379,-9.6983 5.13697,-28.53177 8.55953,-56.49417c2.85318,-23.3948 6.27574,-41.94046 10.27081,-55.63696c-7.41764,49.64904 -12.26679,87.02504 -14.55058,112.13113zm48.79184,-28.24708l5.13384,-18.83035l0.8572,3.42256l-5.99105,15.40778zm19.43101,64.4061l0.16581,-0.56938c1.0105,-2.99083 2.46837,-5.43731 4.37049,-7.33942c2.85318,-2.85318 19.11504,-6.56356 48.78871,-11.12802c26.82049,-3.99507 44.79989,-5.99418 53.92881,-5.99418l1.71128,-1.71128c1.1419,0.57251 2.56536,1.71128 4.27977,3.42569l2.56536,0.85408c30.24618,-2.85318 53.0716,-4.84915 68.48252,-5.99105c1.13877,0 12.55148,-2.28379 34.23813,-6.84825c14.26589,-3.42256 25.6786,-5.13697 34.23813,-5.13697c8.55953,0 14.55058,1.42659 17.97627,4.27977a315.41376,315.41376 0 0 0 24.82139,-7.70233c10.27394,-3.42256 17.69158,-7.41764 22.25604,-11.98209c-21.11414,-21.11727 -39.3751,-31.67277 -54.77976,-31.67277c-19.97537,0 -38.52102,4.27977 -55.64009,12.8393c-5.13697,0 -11.41271,1.1419 -18.83347,3.42569c-9.6983,2.28379 -15.69248,3.70725 -17.97314,4.27977c-66.19872,10.8402 -115.84464,16.26186 -148.94087,16.26186l-1.71128,0c3.42256,-78.7502 20.82632,-169.76719 52.2144,-273.05409c7.98702,-25.68173 11.98209,-39.09041 11.98209,-40.23231l-3.42256,-1.71441c3.99507,-12.55148 7.13294,-22.54073 9.41674,-29.95836l-1.71441,-6.84825c7.41764,-21.11414 11.98209,-37.376 13.6965,-48.78871c8.55953,-23.39793 15.40778,-41.08638 20.54163,-53.0716c0.57251,2.28379 0.8572,4.56759 0.8572,6.84825c9.13205,-22.25604 14.26589,-34.23813 15.40778,-35.95254c-6.84825,-42.22828 -19.11504,-69.61816 -36.80662,-82.17276l-1.71128,0c-4.56759,0 -7.70546,0.28469 -9.41674,0.8572l-0.8572,2.56536l-5.99105,-3.42256l-4.27664,1.71128l-1.71128,4.27977c-2.85318,-0.56938 -4.84915,-1.42659 -5.99105,-2.56536l0,1.71128c-3.42569,-0.57251 -5.85027,-0.8572 -7.27685,-0.8572c-1.42659,0 -2.13988,-0.8572 -2.13988,-2.56536c-15.97717,0 -28.25021,5.13071 -36.80662,15.40466c-13.6965,16.54968 -25.96642,50.78781 -36.80662,102.71752a7518.06009,7518.06009 0 0 1 -17.97627,111.28018c-2.85318,16.54655 -9.41674,45.93553 -19.68755,88.16068c-9.13205,36.52505 -14.8384,65.62621 -17.11906,87.31286c-3.99507,35.94941 -6.85138,64.76901 -8.55953,86.45253c-4.56759,17.69158 -6.85138,41.37107 -6.85138,71.04787l1.71441,1.71128l0.8572,3.42256l-1.71441,5.13697c0,6.27574 0.8572,10.55551 2.56849,12.8393l-0.01877,-0.00939l-5.9754,-4.27038l0,2.56536c0,0.57251 0.4286,2.00223 1.28268,4.28289c0.8572,2.28379 1.5705,3.70725 2.13988,4.27977l1.71441,4.27977c5.70635,3.42256 13.55259,4.99306 23.53871,4.70837c9.98612,-0.28782 16.97515,0.71329 20.97023,2.99396l-0.85408,8.55953l4.27977,-4.27977l0.85408,0l1.71441,-0.85408l2.56536,0c1.1419,1.1419 2.28379,2.56536 3.42569,4.27977l-3.42569,5.13384a1183.99044,1183.99044 0 0 1 9.41674,-11.98209c1.71128,0 3.42256,0.28469 5.13697,0.8572l-5.12446,17.95124l1.89273,-2.82502c3.08469,-4.59887 5.73451,-8.47193 7.94635,-11.61606l1.27642,-1.79888l1.71128,-0.8572l3.42569,3.42569l-0.25654,3.62904zm-26.28239,-144.61418l0.15642,-1.44223c0.54436,-4.74904 1.28581,-10.16757 2.22435,-16.24622l0.44424,-2.83754l4.02636,-6.26323l-3.94189,5.6782l0.05631,-0.30659c0.20335,-1.27016 0.41609,-2.56536 0.63508,-3.88871l0.68201,-4.04826c5.13384,-29.67367 7.98702,-46.50804 8.55953,-50.50312l-5.99105,21.39883c5.13384,-27.96239 9.12892,-52.49909 11.98209,-73.61323c2.28379,-3.99507 5.42166,-6.85138 9.41674,-8.55953l6.84825,-23.11324c0,7.99015 -2.85318,23.39793 -8.55953,46.22335c-5.70635,25.6786 -9.13205,42.5161 -10.27394,50.50312c-7.98702,77.03892 -17.40376,134.10247 -28.24708,171.19378l-4.27977,0.8572c-0.56938,-4.56759 -0.85408,-8.55953 -0.85408,-11.98209c0,-37.66695 5.41853,-72.75915 16.26186,-105.286l0.8572,5.13384l-0.00313,7.10166z"/>
 </g>
</svg>